<svg width="20" height="20" viewBox="0 0 20 20" fill="none" xmlns="http://www.w3.org/2000/svg">
<g clip-path="url(#clip0_53_456)">
<path d="M14.1668 0H5.83348C4.72881 0.00132321 3.66977 0.440735 2.88866 1.22185C2.10754 2.00296 1.66813 3.062 1.66681 4.16667V15.8333C1.66813 16.938 2.10754 17.997 2.88866 18.7781C3.66977 19.5593 4.72881 19.9987 5.83348 20H14.1668C15.2715 19.9987 16.3305 19.5593 17.1116 18.7781C17.8927 17.997 18.3322 16.938 18.3335 15.8333V4.16667C18.3322 3.062 17.8927 2.00296 17.1116 1.22185C16.3305 0.440735 15.2715 0.00132321 14.1668 0V0ZM5.83348 1.66667H14.1668C14.8299 1.66667 15.4657 1.93006 15.9346 2.3989C16.4034 2.86774 16.6668 3.50362 16.6668 4.16667V9.16666H3.33348V4.16667C3.33348 3.50362 3.59687 2.86774 4.06571 2.3989C4.53455 1.93006 5.17043 1.66667 5.83348 1.66667V1.66667ZM14.1668 18.3333H5.83348C5.17043 18.3333 4.53455 18.0699 4.06571 17.6011C3.59687 17.1323 3.33348 16.4964 3.33348 15.8333V10.8333H16.6668V15.8333C16.6668 16.4964 16.4034 17.1323 15.9346 17.6011C15.4657 18.0699 14.8299 18.3333 14.1668 18.3333Z" fill="#53545C"/>
<path d="M9.16652 5.83335H10.8332C11.0542 5.83335 11.2662 5.74555 11.4224 5.58927C11.5787 5.43299 11.6665 5.22103 11.6665 5.00002C11.6665 4.77901 11.5787 4.56704 11.4224 4.41076C11.2662 4.25448 11.0542 4.16669 10.8332 4.16669H9.16652C8.94551 4.16669 8.73355 4.25448 8.57727 4.41076C8.42099 4.56704 8.33319 4.77901 8.33319 5.00002C8.33319 5.22103 8.42099 5.43299 8.57727 5.58927C8.73355 5.74555 8.94551 5.83335 9.16652 5.83335V5.83335Z" fill="#374957"/>
<path d="M10.8332 14.1667H9.16652C8.94551 14.1667 8.73355 14.2545 8.57727 14.4107C8.42099 14.567 8.33319 14.779 8.33319 15C8.33319 15.221 8.42099 15.433 8.57727 15.5893C8.73355 15.7455 8.94551 15.8333 9.16652 15.8333H10.8332C11.0542 15.8333 11.2662 15.7455 11.4224 15.5893C11.5787 15.433 11.6665 15.221 11.6665 15C11.6665 14.779 11.5787 14.567 11.4224 14.4107C11.2662 14.2545 11.0542 14.1667 10.8332 14.1667Z" fill="#374957"/>
</g>
<defs>
<clipPath id="clip0_53_456">
<rect width="20" height="20" fill="white"/>
</clipPath>
</defs>
</svg>
