<svg width="18" height="22" viewBox="0 0 18 22" fill="none" xmlns="http://www.w3.org/2000/svg">
    <symbol id="noti" viewBox="0 0 512 512">
        <path d="M17.2265 10.5159C16.4531 9.61271 16.1016 8.82998 16.1016 7.50021V7.04807C16.1016 5.3152 15.7028 4.1987 14.8357 3.0822C13.4992 1.34827 11.2493 0.303223 9.04683 0.303223H8.95317C6.79696 0.303223 4.6176 1.30029 3.258 2.96384C2.34353 4.10273 1.89839 5.26721 1.89839 7.04807V7.50021C1.89839 8.82998 1.57007 9.61271 0.773458 10.5159C0.187314 11.1813 0 12.0366 0 12.9622C0 13.8889 0.304122 14.7665 0.914469 15.4799C1.71108 16.3352 2.83601 16.8811 3.98515 16.976C5.64887 17.1659 7.3126 17.2373 9.00053 17.2373C10.6874 17.2373 12.3511 17.1179 14.0159 16.976C15.164 16.8811 16.2889 16.3352 17.0855 15.4799C17.6948 14.7665 18 13.8889 18 12.9622C18 12.0366 17.8127 11.1813 17.2265 10.5159Z" fill="#5C5C5C"/>
        <path opacity="0.4" d="M11.1269 18.7621C10.5976 18.649 7.37221 18.649 6.84289 18.7621C6.39039 18.8666 5.90106 19.1097 5.90106 19.6429C5.92737 20.1516 6.22518 20.6005 6.63769 20.8852L6.63664 20.8863C7.17016 21.3022 7.7963 21.5667 8.45189 21.6616C8.80127 21.7096 9.15695 21.7074 9.51895 21.6616C10.1735 21.5667 10.7996 21.3022 11.3332 20.8863L11.3321 20.8852C11.7446 20.6005 12.0424 20.1516 12.0687 19.6429C12.0687 19.1097 11.5794 18.8666 11.1269 18.7621Z" fill="#5C5C5C"/>
    </symbol>
</svg>
